<mxfile host="app.diagrams.net" agent="Mozilla/5.0 (Windows NT 10.0; Win64; x64) AppleWebKit/537.36 (KHTML, like Gecko) Chrome/127.0.0.0 Safari/537.36" version="24.7.6">
  <diagram name="Page-1" id="4HnanoB0sLonKKXGIWA5">
    <mxGraphModel dx="2388" dy="892" grid="0" gridSize="10" guides="1" tooltips="1" connect="1" arrows="1" fold="1" page="0" pageScale="1" pageWidth="850" pageHeight="1100" math="0" shadow="0">
      <root>
        <mxCell id="0" />
        <mxCell id="1" parent="0" />
        <mxCell id="-5gmEfJ1JlybyGuy--jv-1" value="" style="rounded=0;whiteSpace=wrap;html=1;fontFamily=Tahoma;fontStyle=1;fontSize=9;fillColor=none;strokeColor=#FFFFFF;fontColor=#000000;" parent="1" vertex="1">
          <mxGeometry x="-420" y="140" width="200" height="80" as="geometry" />
        </mxCell>
        <mxCell id="-5gmEfJ1JlybyGuy--jv-29" value="" style="rounded=0;whiteSpace=wrap;html=1;fontFamily=Tahoma;fontStyle=1;fontSize=9;fillColor=none;strokeColor=#FFFFFF;fontColor=#000000;" parent="1" vertex="1">
          <mxGeometry x="-140" y="140" width="120" height="80" as="geometry" />
        </mxCell>
        <mxCell id="-5gmEfJ1JlybyGuy--jv-30" value="" style="rounded=0;whiteSpace=wrap;html=1;fontFamily=Tahoma;fontStyle=1;fontSize=9;fillColor=none;strokeColor=#FFFFFF;fontColor=#000000;" parent="1" vertex="1">
          <mxGeometry x="20" y="140" width="120" height="80" as="geometry" />
        </mxCell>
        <mxCell id="-5gmEfJ1JlybyGuy--jv-61" value="" style="edgeStyle=orthogonalEdgeStyle;rounded=0;orthogonalLoop=1;jettySize=auto;html=1;fontFamily=Tahoma;fontStyle=1;fontSize=9;fillColor=none;strokeColor=#FFFFFF;fontColor=#000000;" parent="1" source="-5gmEfJ1JlybyGuy--jv-38" target="-5gmEfJ1JlybyGuy--jv-59" edge="1">
          <mxGeometry relative="1" as="geometry" />
        </mxCell>
        <mxCell id="-5gmEfJ1JlybyGuy--jv-38" value="" style="rounded=0;whiteSpace=wrap;html=1;fontFamily=Tahoma;fontStyle=1;fontSize=9;fillColor=none;strokeColor=#FFFFFF;fontColor=#000000;" parent="1" vertex="1">
          <mxGeometry x="190" y="280" width="120" height="40" as="geometry" />
        </mxCell>
        <mxCell id="-5gmEfJ1JlybyGuy--jv-62" value="" style="edgeStyle=orthogonalEdgeStyle;rounded=0;orthogonalLoop=1;jettySize=auto;html=1;fontFamily=Tahoma;fontStyle=1;fontSize=9;fillColor=none;strokeColor=#FFFFFF;fontColor=#000000;" parent="1" source="-5gmEfJ1JlybyGuy--jv-59" target="-5gmEfJ1JlybyGuy--jv-60" edge="1">
          <mxGeometry relative="1" as="geometry" />
        </mxCell>
        <mxCell id="-5gmEfJ1JlybyGuy--jv-59" value="" style="rounded=0;whiteSpace=wrap;html=1;fontFamily=Tahoma;fontStyle=1;fontSize=9;fillColor=none;strokeColor=#FFFFFF;fontColor=#000000;" parent="1" vertex="1">
          <mxGeometry x="190" y="350" width="120" height="40" as="geometry" />
        </mxCell>
        <mxCell id="-5gmEfJ1JlybyGuy--jv-60" value="&lt;span style=&quot;color: rgba(0, 0, 0, 0); font-family: monospace; font-size: 0px; font-weight: 400; text-align: start; text-wrap: nowrap;&quot;&gt;%3CmxGraphModel%3E%3Croot%3E%3CmxCell%20id%3D%220%22%2F%3E%3CmxCell%20id%3D%221%22%20parent%3D%220%22%2F%3E%3CmxCell%20id%3D%222%22%20value%3D%22%22%20style%3D%22rounded%3D0%3BwhiteSpace%3Dwrap%3Bhtml%3D1%3BfillColor%3Dnone%3Bdashed%3D1%3BfontFamily%3DTahoma%3BfontStyle%3D1%3BfontSize%3D9%3BstrokeColor%3D%23FFFFFF%3BfontColor%3D%23000000%3B%22%20vertex%3D%221%22%20parent%3D%221%22%3E%3CmxGeometry%20x%3D%22180%22%20y%3D%22260%22%20width%3D%22140%22%20height%3D%22220%22%20as%3D%22geometry%22%2F%3E%3C%2FmxCell%3E%3C%2Froot%3E%3C%2FmxGraphModel%3E&lt;/span&gt;" style="rounded=0;whiteSpace=wrap;html=1;fontFamily=Tahoma;fontStyle=1;fontSize=9;fillColor=none;strokeColor=#FFFFFF;fontColor=#000000;" parent="1" vertex="1">
          <mxGeometry x="190" y="420" width="120" height="40" as="geometry" />
        </mxCell>
        <mxCell id="E6p140yHKoIBGCS3eDRN-1" value="" style="rounded=0;whiteSpace=wrap;html=1;fontFamily=Tahoma;fontStyle=1;fontSize=9;fillColor=none;strokeColor=#FFFFFF;fontColor=#000000;" parent="1" vertex="1">
          <mxGeometry x="190" y="140" width="120" height="80" as="geometry" />
        </mxCell>
        <mxCell id="GG_13Qa6QtEl-e7Q6_wG-20" value="" style="edgeStyle=orthogonalEdgeStyle;rounded=0;orthogonalLoop=1;jettySize=auto;html=1;fillColor=none;strokeColor=#FFFFFF;fontColor=#000000;" edge="1" parent="1">
          <mxGeometry relative="1" as="geometry">
            <mxPoint x="-310" y="230" as="sourcePoint" />
            <mxPoint x="-140.99999999999977" y="260" as="targetPoint" />
            <Array as="points">
              <mxPoint x="-310" y="240" />
              <mxPoint x="-141" y="240" />
            </Array>
          </mxGeometry>
        </mxCell>
        <mxCell id="GG_13Qa6QtEl-e7Q6_wG-9" value="" style="edgeStyle=orthogonalEdgeStyle;rounded=0;orthogonalLoop=1;jettySize=auto;html=1;fontFamily=Tahoma;fontStyle=1;fontSize=9;fillColor=none;strokeColor=#FFFFFF;fontColor=#000000;" edge="1" parent="1" source="GG_13Qa6QtEl-e7Q6_wG-10" target="GG_13Qa6QtEl-e7Q6_wG-12">
          <mxGeometry relative="1" as="geometry" />
        </mxCell>
        <mxCell id="GG_13Qa6QtEl-e7Q6_wG-10" value="" style="rounded=0;whiteSpace=wrap;html=1;fontStyle=3;fontFamily=Tahoma;fontSize=9;fillColor=none;strokeColor=#FFFFFF;fontColor=#000000;" vertex="1" parent="1">
          <mxGeometry x="-420" y="270" width="160" height="80" as="geometry" />
        </mxCell>
        <mxCell id="GG_13Qa6QtEl-e7Q6_wG-11" value="" style="edgeStyle=orthogonalEdgeStyle;rounded=0;orthogonalLoop=1;jettySize=auto;html=1;fontFamily=Tahoma;fontStyle=1;fontSize=9;fillColor=none;strokeColor=#FFFFFF;fontColor=#000000;" edge="1" parent="1" source="GG_13Qa6QtEl-e7Q6_wG-12" target="GG_13Qa6QtEl-e7Q6_wG-14">
          <mxGeometry relative="1" as="geometry" />
        </mxCell>
        <mxCell id="GG_13Qa6QtEl-e7Q6_wG-12" value="" style="rounded=0;whiteSpace=wrap;html=1;fontStyle=3;fontFamily=Tahoma;fontSize=9;fillColor=none;strokeColor=#FFFFFF;fontColor=#000000;" vertex="1" parent="1">
          <mxGeometry x="-220" y="270" width="160" height="80" as="geometry" />
        </mxCell>
        <mxCell id="GG_13Qa6QtEl-e7Q6_wG-13" value="" style="edgeStyle=orthogonalEdgeStyle;rounded=0;orthogonalLoop=1;jettySize=auto;html=1;fontFamily=Tahoma;fontStyle=1;fontSize=9;fillColor=none;strokeColor=#FFFFFF;fontColor=#000000;" edge="1" parent="1" source="GG_13Qa6QtEl-e7Q6_wG-14" target="GG_13Qa6QtEl-e7Q6_wG-16">
          <mxGeometry relative="1" as="geometry" />
        </mxCell>
        <mxCell id="GG_13Qa6QtEl-e7Q6_wG-14" value="" style="rounded=0;whiteSpace=wrap;html=1;fontStyle=3;fontFamily=Tahoma;fontSize=9;fillColor=none;strokeColor=#FFFFFF;fontColor=#000000;" vertex="1" parent="1">
          <mxGeometry x="-20" y="270" width="160" height="80" as="geometry" />
        </mxCell>
        <mxCell id="GG_13Qa6QtEl-e7Q6_wG-15" value="" style="edgeStyle=orthogonalEdgeStyle;rounded=0;orthogonalLoop=1;jettySize=auto;html=1;entryX=1;entryY=0.5;entryDx=0;entryDy=0;fontFamily=Tahoma;fontStyle=1;fontSize=9;fillColor=none;strokeColor=#FFFFFF;fontColor=#000000;" edge="1" parent="1" source="GG_13Qa6QtEl-e7Q6_wG-16" target="GG_13Qa6QtEl-e7Q6_wG-17">
          <mxGeometry relative="1" as="geometry">
            <mxPoint x="-60" y="430" as="targetPoint" />
          </mxGeometry>
        </mxCell>
        <mxCell id="GG_13Qa6QtEl-e7Q6_wG-16" value="" style="rounded=0;whiteSpace=wrap;html=1;fontStyle=3;fontFamily=Tahoma;fontSize=9;fillColor=none;strokeColor=#FFFFFF;fontColor=#000000;" vertex="1" parent="1">
          <mxGeometry x="-20" y="390" width="160" height="80" as="geometry" />
        </mxCell>
        <mxCell id="GG_13Qa6QtEl-e7Q6_wG-17" value="" style="rounded=0;whiteSpace=wrap;html=1;fontStyle=3;fontFamily=Tahoma;fontSize=9;fillColor=none;strokeColor=#FFFFFF;fontColor=#000000;" vertex="1" parent="1">
          <mxGeometry x="-420" y="390" width="160" height="80" as="geometry" />
        </mxCell>
        <mxCell id="GG_13Qa6QtEl-e7Q6_wG-23" style="edgeStyle=orthogonalEdgeStyle;rounded=0;orthogonalLoop=1;jettySize=auto;html=1;entryX=0.5;entryY=1;entryDx=0;entryDy=0;exitX=0.742;exitY=-0.003;exitDx=0;exitDy=0;exitPerimeter=0;fillColor=none;strokeColor=#FFFFFF;fontColor=#000000;" edge="1" parent="1">
          <mxGeometry relative="1" as="geometry">
            <mxPoint x="-0.15599999999994907" y="259.34000000000003" as="sourcePoint" />
            <mxPoint y="230" as="targetPoint" />
          </mxGeometry>
        </mxCell>
        <mxCell id="GG_13Qa6QtEl-e7Q6_wG-25" value="" style="edgeStyle=orthogonalEdgeStyle;rounded=0;orthogonalLoop=1;jettySize=auto;html=1;fillColor=none;strokeColor=#FFFFFF;fontColor=#000000;" edge="1" parent="1">
          <mxGeometry relative="1" as="geometry">
            <mxPoint x="150" y="180" as="sourcePoint" />
            <mxPoint x="180" y="180" as="targetPoint" />
          </mxGeometry>
        </mxCell>
        <mxCell id="GG_13Qa6QtEl-e7Q6_wG-27" value="" style="edgeStyle=orthogonalEdgeStyle;rounded=0;orthogonalLoop=1;jettySize=auto;html=1;fillColor=none;strokeColor=#FFFFFF;fontColor=#000000;" edge="1" parent="1">
          <mxGeometry relative="1" as="geometry">
            <mxPoint x="250" y="230" as="sourcePoint" />
            <mxPoint x="250" y="260" as="targetPoint" />
          </mxGeometry>
        </mxCell>
        <mxCell id="GG_13Qa6QtEl-e7Q6_wG-33" value="" style="edgeStyle=orthogonalEdgeStyle;rounded=0;orthogonalLoop=1;jettySize=auto;html=1;fillColor=none;strokeColor=#FFFFFF;fontColor=#000000;" edge="1" parent="1">
          <mxGeometry relative="1" as="geometry">
            <mxPoint x="320" y="310" as="sourcePoint" />
            <mxPoint x="340" y="310" as="targetPoint" />
            <Array as="points">
              <mxPoint x="330" y="310" />
              <mxPoint x="330" y="310" />
            </Array>
          </mxGeometry>
        </mxCell>
        <mxCell id="GG_13Qa6QtEl-e7Q6_wG-30" value="" style="rounded=0;whiteSpace=wrap;html=1;fontFamily=Tahoma;fontStyle=1;fontSize=9;rotation=-90;fillColor=none;strokeColor=#FFFFFF;fontColor=#000000;" vertex="1" parent="1">
          <mxGeometry x="220" y="280" width="300" height="40" as="geometry" />
        </mxCell>
        <mxCell id="GG_13Qa6QtEl-e7Q6_wG-36" value="" style="rounded=0;whiteSpace=wrap;html=1;fillColor=none;dashed=1;fontFamily=Tahoma;fontStyle=1;fontSize=9;strokeColor=#FFFFFF;fontColor=#000000;" vertex="1" parent="1">
          <mxGeometry x="-432" y="130" width="223" height="100" as="geometry" />
        </mxCell>
        <mxCell id="GG_13Qa6QtEl-e7Q6_wG-37" value="" style="rounded=0;whiteSpace=wrap;html=1;fillColor=none;dashed=1;fontFamily=Tahoma;fontStyle=1;fontSize=9;strokeColor=#FFFFFF;fontColor=#000000;" vertex="1" parent="1">
          <mxGeometry x="-150" y="130" width="300" height="100" as="geometry" />
        </mxCell>
        <mxCell id="GG_13Qa6QtEl-e7Q6_wG-38" value="" style="rounded=0;whiteSpace=wrap;html=1;fillColor=none;dashed=1;fontFamily=Tahoma;fontStyle=1;fontSize=9;strokeColor=#FFFFFF;fontColor=#000000;" vertex="1" parent="1">
          <mxGeometry x="180" y="130" width="140" height="100" as="geometry" />
        </mxCell>
        <mxCell id="GG_13Qa6QtEl-e7Q6_wG-39" value="" style="rounded=0;whiteSpace=wrap;html=1;fillColor=none;dashed=1;fontFamily=Tahoma;fontStyle=1;fontSize=9;strokeColor=#FFFFFF;fontColor=#000000;" vertex="1" parent="1">
          <mxGeometry x="340" y="130" width="60" height="350" as="geometry" />
        </mxCell>
        <mxCell id="GG_13Qa6QtEl-e7Q6_wG-41" value="" style="rounded=0;whiteSpace=wrap;html=1;fillColor=none;dashed=1;fontFamily=Tahoma;fontStyle=1;fontSize=9;strokeColor=#FFFFFF;fontColor=#000000;" vertex="1" parent="1">
          <mxGeometry x="180" y="260" width="140" height="220" as="geometry" />
        </mxCell>
        <mxCell id="GG_13Qa6QtEl-e7Q6_wG-42" value="" style="rounded=0;whiteSpace=wrap;html=1;fillColor=none;dashed=1;fontFamily=Tahoma;fontStyle=1;fontSize=9;strokeColor=#FFFFFF;fontColor=#000000;" vertex="1" parent="1">
          <mxGeometry x="-432" y="260" width="582" height="220" as="geometry" />
        </mxCell>
      </root>
    </mxGraphModel>
  </diagram>
</mxfile>
